<svg xmlns="http://www.w3.org/2000/svg"><symbol id="calculator-solid" viewBox="0 0 448 512"><path fill="#38383a" d="M400 0H48C22.4 0 0 22.4 0 48v416c0 25.6 22.4 48 48 48h352c25.6 0 48-22.4 48-48V48c0-25.6-22.4-48-48-48zM128 435.2c0 6.4-6.4 12.8-12.8 12.8H76.8c-6.4 0-12.8-6.4-12.8-12.8v-38.4c0-6.4 6.4-12.8 12.8-12.8h38.4c6.4 0 12.8 6.4 12.8 12.8v38.4zm0-128c0 6.4-6.4 12.8-12.8 12.8H76.8c-6.4 0-12.8-6.4-12.8-12.8v-38.4c0-6.4 6.4-12.8 12.8-12.8h38.4c6.4 0 12.8 6.4 12.8 12.8v38.4zm128 128c0 6.4-6.4 12.8-12.8 12.8h-38.4c-6.4 0-12.8-6.4-12.8-12.8v-38.4c0-6.4 6.4-12.8 12.8-12.8h38.4c6.4 0 12.8 6.4 12.8 12.8v38.4zm0-128c0 6.4-6.4 12.8-12.8 12.8h-38.4c-6.4 0-12.8-6.4-12.8-12.8v-38.4c0-6.4 6.4-12.8 12.8-12.8h38.4c6.4 0 12.8 6.4 12.8 12.8v38.4zm128 128c0 6.4-6.4 12.8-12.8 12.8h-38.4c-6.4 0-12.8-6.4-12.8-12.8V268.8c0-6.4 6.4-12.8 12.8-12.8h38.4c6.4 0 12.8 6.4 12.8 12.8v166.4zm0-256c0 6.4-6.4 12.8-12.8 12.8H76.8c-6.4 0-12.8-6.4-12.8-12.8V76.8C64 70.4 70.4 64 76.8 64h294.4c6.4 0 12.8 6.4 12.8 12.8v102.4z"/></symbol><symbol id="desktop-solid" viewBox="0 0 576 512"><path fill="#38383a" d="M528 0H48C21.5 0 0 21.5 0 48v320c0 26.5 21.5 48 48 48h192l-16 48h-72c-13.3 0-24 10.7-24 24s10.7 24 24 24h272c13.3 0 24-10.7 24-24s-10.7-24-24-24h-72l-16-48h192c26.5 0 48-21.5 48-48V48c0-26.5-21.5-48-48-48zm-16 352H64V64h448v288z"/></symbol><symbol id="journal-whills-solid" viewBox="0 0 448 512"><path fill="#38383a" d="M448 358.4V25.6c0-16-9.6-25.6-25.6-25.6H96C41.6 0 0 41.6 0 96v320c0 54.4 41.6 96 96 96h326.4c12.8 0 25.6-9.6 25.6-25.6v-16c0-6.4-3.2-12.8-9.6-19.2-3.2-16-3.2-60.8 0-73.6 6.4-3.2 9.6-9.6 9.6-19.2zM133.08 144.39l21.26 21.26c1.56 1.56 3.61 2.34 5.66 2.34s4.09-.78 5.66-2.34c3.12-3.12 3.12-8.19 0-11.31l-26.42-26.42c10-20.9 26.24-37.97 46.37-49.26C179.62 88.4 176 99.74 176 112c0 19.96 9.33 37.57 23.66 49.31C190.01 171.37 184 184.96 184 200c0 26.94 19.04 49.4 44.38 54.76l1.36-32.71-10.37 7.04c-.69.45-1.47.69-2.25.69-1 0-1.98-.38-2.75-1.09a4.006 4.006 0 0 1-.69-4.95l8.54-14.31-17.91-3.72c-1.86-.39-3.19-2.03-3.19-3.92s1.33-3.53 3.19-3.92l17.91-3.72-8.54-14.31c-.95-1.61-.67-3.67.69-4.95 1.36-1.3 3.44-1.44 5-.41l12.01 8.16L236 71.83c.09-2.14 1.86-3.83 4-3.83s3.91 1.69 4 3.83l4.68 112.29 14.2-9.65a4.067 4.067 0 0 1 5 .41 4.006 4.006 0 0 1 .69 4.95l-8.54 14.31 17.91 3.72c1.86.39 3.19 2.03 3.19 3.92s-1.33 3.53-3.19 3.92l-17.91 3.72 8.54 14.31c.95 1.61.67 3.67-.69 4.95-.77.72-1.77 1.09-2.75 1.09-.78 0-1.56-.23-2.25-.69l-12.68-8.62 1.43 34.28C276.96 249.4 296 226.94 296 200c0-15.04-6.01-28.63-15.66-38.69C294.67 149.57 304 131.96 304 112c0-12.26-3.62-23.6-9.6-33.33 20.13 11.28 36.37 28.36 46.37 49.26l-26.42 26.42c-3.12 3.12-3.12 8.19 0 11.31 1.56 1.56 3.61 2.34 5.66 2.34s4.09-.78 5.66-2.34l21.26-21.26c2.97 10.08 5.07 20.55 5.07 31.6 0 .52-.14.99-.15 1.51l-37.11 32.47a7.975 7.975 0 0 0-.75 11.28 7.97 7.97 0 0 0 6.02 2.73c1.88 0 3.75-.66 5.27-1.98l23.59-20.64C337.32 250.96 293.09 288 240 288s-97.32-37.04-108.86-86.62l23.59 20.64A7.957 7.957 0 0 0 160 224c2.22 0 4.44-.92 6.02-2.73 2.92-3.33 2.58-8.38-.75-11.28l-37.11-32.47c-.01-.52-.15-.99-.15-1.51-.01-11.06 2.09-21.53 5.07-31.62zM380.8 448H96c-19.2 0-32-12.8-32-32s16-32 32-32h284.8v64z"/></symbol><symbol id="search-solid" viewBox="0 0 512 512"><path fill="#fff" d="M505 442.7L405.3 343c-4.5-4.5-10.6-7-17-7H372c27.6-35.3 44-79.7 44-128C416 93.1 322.9 0 208 0S0 93.1 0 208s93.1 208 208 208c48.3 0 92.7-16.4 128-44v16.3c0 6.4 2.5 12.5 7 17l99.7 99.7c9.4 9.4 24.6 9.4 33.9 0l28.3-28.3c9.4-9.4 9.4-24.6.1-34zM208 336c-70.7 0-128-57.2-128-128 0-70.7 57.2-128 128-128 70.7 0 128 57.2 128 128 0 70.7-57.2 128-128 128z"/></symbol><symbol id="users-solid" viewBox="0 0 640 512"><path fill="#38383a" d="M96 224c35.3 0 64-28.7 64-64s-28.7-64-64-64-64 28.7-64 64 28.7 64 64 64zm448 0c35.3 0 64-28.7 64-64s-28.7-64-64-64-64 28.7-64 64 28.7 64 64 64zm32 32h-64c-17.6 0-33.5 7.1-45.1 18.6 40.3 22.1 68.9 62 75.1 109.4h66c17.7 0 32-14.3 32-32v-32c0-35.3-28.7-64-64-64zm-256 0c61.9 0 112-50.1 112-112S381.9 32 320 32 208 82.1 208 144s50.1 112 112 112zm76.8 32h-8.3c-20.8 10-43.9 16-68.5 16s-47.6-6-68.5-16h-8.3C179.6 288 128 339.6 128 403.2V432c0 26.5 21.5 48 48 48h288c26.5 0 48-21.5 48-48v-28.8c0-63.6-51.6-115.2-115.2-115.2zm-223.7-13.4C161.5 263.1 145.6 256 128 256H64c-35.3 0-64 28.7-64 64v32c0 17.7 14.3 32 32 32h65.9c6.3-47.4 34.9-87.3 75.2-109.4z"/></symbol></svg>